Coordinates
version=1
nRows=22
nColumns=24
inDegrees=yes

Units are S.I. units (second, meters, Newtons, ...)
Angles are in degrees.

endheader
time	pelvis_tilt	pelvis_list	pelvis_rotation	pelvis_tx	pelvis_ty	pelvis_tz	hip_flexion_r	hip_adduction_r	hip_rotation_r	knee_angle_r	ankle_angle_r	subtalar_angle_r	mtp_angle_r	hip_flexion_l	hip_adduction_l	hip_rotation_l	knee_angle_l	ankle_angle_l	subtalar_angle_l	mtp_angle_l	lumbar_extension	lumbar_bending	lumbar_rotation
      1.18000000	     17.41901100	      4.78712313	      0.20625149	     -0.57244546	      0.91943689	      0.26279349	      7.55258969	     -3.91072858	     -3.34326481	     -8.27890071	     12.86828612	      3.25032347	     45.68283592	    -33.24570065	      5.36178393	     -2.68684600	    -12.98017522	     30.64022868	     11.01977599	     18.56431699	    -33.89820937	     -1.69943084	     -3.09646363
      1.18500000	     17.54015237	      4.70510681	      0.30047417	     -0.56503331	      0.91867667	      0.26341812	      7.48763267	     -3.77348524	     -3.23095367	     -9.02429440	     12.86820306	      2.92608329	     45.53552416	    -33.59441108	      5.12111438	     -2.72608901	    -13.53389662	     30.62874938	     11.24552163	     18.90832660	    -33.94246989	     -1.53317472	     -3.23725817
      1.19000000	     17.69780484	      4.60595864	      0.34355971	     -0.55744524	      0.91788986	      0.26407396	      7.38277808	     -3.60134039	     -3.01576084	     -9.85357271	     12.91603953	      2.59939690	     45.15634140	    -33.99091182	      4.89472965	     -2.82799279	    -14.07272227	     30.40428803	     11.33972420	     20.77046925	    -33.98932408	     -1.37943428	     -3.22736958
      1.19500000	     17.78994539	      4.52400084	      0.47285710	     -0.54988863	      0.91706234	      0.26467018	      7.36943363	     -3.45181019	     -3.06938443	    -10.83568733	     12.46608109	      2.33694693	     45.52805460	    -34.23147890	      4.62457131	     -2.87892069	    -14.79369519	     30.38768447	     11.57638085	     21.63741906	    -33.99089958	     -1.19736184	     -3.34109069
      1.20000000	     17.82381668	      4.36255831	      0.49542308	     -0.54234877	      0.91633615	      0.26530436	      7.44737193	     -3.17621243	     -3.01177948	    -11.83359642	     10.76677290	      1.26796303	     47.31279890	    -34.41767606	      4.36703223	     -2.91764525	    -15.47325422	     30.13912181	     11.53781882	     22.84646252	    -33.91441972	     -0.99759424	     -3.21841309
      1.20500000	     17.85142870	      4.19667184	      0.65519158	     -0.53502755	      0.91576020	      0.26574083	      7.55122606	     -2.93348809	     -3.23821239	    -12.88032179	      8.49681589	      0.07649385	     47.62522897	    -34.49807546	      4.02369927	     -2.82542578	    -16.30173791	     29.98155198	     11.63486436	     23.55621342	    -33.85863159	     -0.71119636	     -3.23573573
      1.21000000	     17.75384585	      3.97106446	      0.66626778	     -0.52791600	      0.91517445	      0.26634686	      7.91266884	     -2.63195078	     -3.16113304	    -14.03361633	      6.67302554	     -1.21104983	     47.24986725	    -34.39748953	      3.73676362	     -2.72366864	    -17.18090399	     29.78156417	     11.56797973	     24.47318599	    -33.69641663	     -0.43472705	     -3.05606546
      1.21500000	     17.63101525	      3.76720076	      0.70715464	     -0.52075797	      0.91470906	      0.26680446	      8.32797282	     -2.40166474	     -3.11769929	    -15.25505413	      6.22074247	     -1.61028000	     45.85602605	    -34.25083015	      3.48763677	     -2.45502960	    -18.07373690	     29.28990959	     11.16527343	     27.33229497	    -33.50838792	     -0.15264921	     -2.88355704
      1.22000000	     17.51397413	      3.54127140	      0.76362811	     -0.51357954	      0.91436004	      0.26725702	      8.72316253	     -2.17642591	     -3.17918439	    -16.47244221	      6.49895656	     -1.47260384	     46.06296140	    -34.04456527	      3.20771026	     -2.19008799	    -19.11082739	     28.97194647	     10.87738105	     27.70169137	    -33.33067778	      0.15050122	     -2.76800802
      1.22500000	     17.42785406	      3.36946117	      0.83607944	     -0.50635754	      0.91420126	      0.26772624	      9.03582311	     -2.01585217	     -3.25825073	    -17.62723829	      6.80204140	     -1.28871122	     46.87449044	    -33.84067421	      2.98196892	     -1.82870186	    -20.16092793	     28.25897994	     10.23218110	     30.76587754	    -33.17125610	      0.40931626	     -2.66384397
      1.23000000	     17.29391420	      3.20900560	      0.79717685	     -0.49909433	      0.91395365	      0.26830327	      9.48314194	     -1.86766090	     -3.27649667	    -18.96680111	      6.84819454	     -1.16032183	     46.55063573	    -33.53963043	      2.84428727	     -1.57797279	    -21.29792688	     27.63093924	      9.64844713	     32.39846775	    -32.95937754	      0.62054746	     -2.50450542
      1.23500000	     17.18525343	      3.01644294	      0.81072172	     -0.49185183	      0.91379248	      0.26889262	      9.86121772	     -1.68960837	     -3.27256075	    -20.32275766	      6.72451375	     -1.38165546	     45.83802451	    -33.12228080	      2.62065744	     -1.48037886	    -22.70279489	     26.97960996	      9.22538206	     34.69920912	    -32.77814339	      0.89384238	     -2.36817862
      1.24000000	     17.04719099	      2.81788040	      0.79895292	     -0.48462505	      0.91363726	      0.26955664	     10.23834426	     -1.48903770	     -3.19963959	    -21.64256330	      6.82630839	     -1.56714925	     44.72490876	    -32.64199919	      2.39806674	     -1.43818901	    -24.14402302	     26.20976872	      8.82005381	     36.72830194	    -32.57948117	      1.13038917	     -2.20725085
      1.24500000	     16.93956315	      2.62365107	      0.83451859	     -0.47742750	      0.91358765	      0.27027746	     10.47476372	     -1.25022891	     -3.12220314	    -22.76253794	      7.36584066	     -1.61102134	     43.34263703	    -32.07164690	      2.12864709	     -1.47773270	    -25.78297053	     25.40049309	      8.50259394	     38.88673005	    -32.41721344	      1.38139721	     -2.01081436
      1.25000000	     16.87500952	      2.40189167	      0.87010353	     -0.47018710	      0.91372081	      0.27102257	     10.59155458	     -0.96315306	     -3.09443550	    -23.74089221	      8.11835425	     -1.49399228	     42.52418735	    -31.45803467	      1.82382201	     -1.59400288	    -27.57352278	     24.45299703	      8.11953100	     40.77310563	    -32.30303988	      1.66533970	     -1.85433654
      1.25500000	     16.78121183	      2.15775629	      1.00181055	     -0.46300425	      0.91396247	      0.27159350	     10.66333416	     -0.68304251	     -3.27752022	    -24.62322491	      8.85146698	     -1.05498785	     40.96914222	    -30.71117685	      1.42716833	     -1.69344860	    -29.48838365	     23.30953238	      7.79057117	     43.54690027	    -32.14867406	      2.01711199	     -1.85408875
      1.26000000	     16.81674038	      1.82143947	      1.16414276	     -0.45596847	      0.91448553	      0.27225691	     10.45312239	     -0.26297391	     -3.41776996	    -25.22016541	      9.24479201	     -0.96975468	     39.22512003	    -29.98996423	      0.88826520	     -1.90416192	    -31.53597634	     21.99288531	      7.52321497	     46.68888260	    -32.14593440	      2.46762017	     -1.67151060
      1.26500000	     16.74827775	      1.53973049	      1.26284388	     -0.44902583	      0.91487114	      0.27297312	     10.36018775	      0.10679895	     -3.46805459	    -25.79334417	      9.67603408	     -0.86899905	     37.55715636	    -29.06527671	      0.43983899	     -2.10138083	    -33.70003685	     20.55031910	      7.16929054	     49.41179401	    -32.05444155	      2.84545645	     -1.56085376
      1.27000000	     16.55057650	      1.30736174	      1.35524308	     -0.44217665	      0.91511470	      0.27382920	     10.37650251	      0.45248614	     -3.48076046	    -26.29158404	     10.20598879	     -0.88671543	     36.14680788	    -27.89604061	      0.02556907	     -2.25708109	    -35.97045612	     18.90890530	      6.82057898	     52.36001366	    -31.83052239	      3.14694293	     -1.50833552
      1.27500000	     16.32636556	      1.06115909	      1.49177005	     -0.43562429	      0.91528535	      0.27454873	     10.35922461	      0.81673676	     -3.56534366	    -26.63914485	     10.72358241	     -1.01925143	     35.09132411	    -26.56864759	     -0.40524301	     -2.33518913	    -38.38220831	     17.20949395	      6.27800443	     55.31551718	    -31.60732396	      3.47818212	     -1.44332916
      1.28000000	     16.01498621	      0.79953133	      1.66257207	     -0.42915446	      0.91534936	      0.27527526	     10.40932914	      1.19484397	     -3.66685312	    -26.92997803	     11.17605640	     -1.12308431	     33.86683070	    -25.12134141	     -0.83899477	     -2.28307597	    -40.76966993	     15.46861402	      5.61846153	     57.82964340	    -31.29326164	      3.83939884	     -1.42069167
      1.28500000	     15.74754650	      0.50036523	      1.87437158	     -0.42275467	      0.91553985	      0.27591342	     10.35279099	      1.62097258	     -3.70926532	    -27.11503321	     11.56241473	     -1.29723717	     32.50656518	    -23.64864337	     -1.33673193	     -2.19351148	    -43.22778102	     13.69610393	      4.97119579	     59.35854755	    -31.02959376	      4.26366014	     -1.39233790
